<svg width="512" height="512" viewBox="0 0 512 512" fill="none" xmlns="http://www.w3.org/2000/svg">
    <path d="M128 256C128 185.308 185.308 128 256 128C256 57.3076 198.692 0 128 0C57.3076 0 0 57.3076 0 128C0 198.692 57.3076 256 128 256Z" fill="black"/>
    <path d="M256 128C326.692 128 384 185.308 384 256C454.692 256 512 198.692 512 128C512 57.3076 454.692 0 384 0C313.308 0 256 57.3076 256 128Z" fill="black"/>
    <path d="M256 384C326.692 384 384 441.308 384 512C454.692 512 512 454.692 512 384C512 313.308 454.692 256 384 256C313.308 256 256 313.308 256 384Z" fill="black"/>
    <path d="M256 384C185.308 384 128 326.692 128 256C57.3076 256 0 313.308 0 384C0 454.692 57.3076 512 128 512C198.692 512 256 454.692 256 384Z" fill="black"/>
</svg>